<svg xmlns="http://www.w3.org/2000/svg" viewBox="0 0 30 30">
  <!-- Lightbulb Shape -->
  <path d="M12 3a7 7 0 00-7 7c0 2.5 1.2 4.7 3 6v2c0 1.1.9 2 2 2h4c1.1 0 2-.9 2-2v-2c1.8-1.3 3-3.5 3-6a7 7 0 00-7-7z"
   fill="none" stroke="white" stroke-width="2" stroke-linecap="round"/>
  
  <!-- Circling Arrow -->
  <path d="M15.5 7.5a5 5 0 11-1 1" 
    stroke="white" 
    fill="none" 
    stroke-width="2"
    stroke-linecap="round"/>
  
  <!-- Light Rays -->
  <path d="M12 1v1m7 6h1M4 8H3m3.5-3.5l.7.7m9.3-.7l-.7.7" 
    stroke="white" 
    stroke-width="2"
    stroke-linecap="round"/>

  <!-- Decorative Circles (like perforations) -->
  <circle cx="8" cy="7" r="1" fill="white"/>
  <circle cx="8" cy="23" r="1" fill="white"/>
  <circle cx="22" cy="7" r="1" fill="white"/>
  <circle cx="22" cy="23" r="1" fill="white"/>
</svg>
